<svg viewBox="0 0 100 100" xmlns="http://www.w3.org/2000/svg">
  <defs>
    <!-- Gradient for modern look -->
    <linearGradient id="logoGradient" x1="0%" y1="0%" x2="100%" y2="100%">
      <stop offset="0%" style="stop-color:#10b981;stop-opacity:1" />
      <stop offset="100%" style="stop-color:#059669;stop-opacity:1" />
    </linearGradient>
    
    <linearGradient id="accentGradient" x1="0%" y1="0%" x2="100%" y2="100%">
      <stop offset="0%" style="stop-color:#34d399;stop-opacity:1" />
      <stop offset="50%" style="stop-color:#10b981;stop-opacity:1" />
      <stop offset="100%" style="stop-color:#059669;stop-opacity:1" />
    </linearGradient>
    
    <!-- Subtle shadow -->
    <filter id="shadow">
      <feDropShadow dx="0" dy="2" stdDeviation="3" flood-opacity="0.2"/>
    </filter>
  </defs>
  
  <!-- Background circle for modern look -->
  <circle cx="50" cy="50" r="48" fill="#f0fdf4" opacity="0.5"/>
  
  <!-- Main hexagonal swarm icon -->
  <g transform="translate(50, 50)" filter="url(#shadow)">
    <!-- Center hexagon - largest -->
    <path d="M0,-16 L13.86,-8 L13.86,8 L0,16 L-13.86,8 L-13.86,-8 Z" 
          fill="url(#logoGradient)" 
          stroke="#047857" 
          stroke-width="1.5"/>
    
    <!-- Top hexagon -->
    <path d="M0,-38 L11,-32 L11,-20 L0,-14 L-11,-20 L-11,-32 Z" 
          fill="#34d399" 
          opacity="0.85"/>
    
    <!-- Bottom left hexagon -->
    <path d="M-24,0 L-13,6 L-13,18 L-24,24 L-35,18 L-35,6 Z" 
          fill="#10b981" 
          opacity="0.8"/>
    
    <!-- Bottom right hexagon -->
    <path d="M24,0 L35,6 L35,18 L24,24 L13,18 L13,6 Z" 
          fill="#10b981" 
          opacity="0.8"/>
    
    <!-- Top left hexagon -->
    <path d="M-24,-19 L-13,-13 L-13,-1 L-24,5 L-35,-1 L-35,-13 Z" 
          fill="#6ee7b7" 
          opacity="0.7"/>
    
    <!-- Top right hexagon -->
    <path d="M24,-19 L35,-13 L35,-1 L24,5 L13,-1 L13,-13 Z" 
          fill="#6ee7b7" 
          opacity="0.7"/>
    
    <!-- Bottom hexagon -->
    <path d="M0,14 L11,20 L11,32 L0,38 L-11,32 L-11,20 Z" 
          fill="#34d399" 
          opacity="0.75"/>
    
    <!-- Center dot for modern touch -->
    <circle cx="0" cy="0" r="4" fill="white" opacity="0.9"/>
    
    <!-- Small accent dots -->
    <circle cx="0" cy="-26" r="2.5" fill="white" opacity="0.8"/>
    <circle cx="24" cy="13" r="2.5" fill="white" opacity="0.8"/>
    <circle cx="-24" cy="13" r="2.5" fill="white" opacity="0.8"/>
  </g>
  
  <!-- Outer ring accent -->
  <circle cx="50" cy="50" r="45" fill="none" stroke="url(#accentGradient)" stroke-width="1" opacity="0.3"/>
</svg>